HIERARCHY
ROOT f_mosh_cmu05_0511_root
{
	OFFSET 0.000000 0.000000 0.000000
	CHANNELS 6 Xposition Yposition Zposition Xrotation Yrotation Zrotation
	JOINT f_mosh_cmu05_0511_Pelvis
	{
		OFFSET -0.000601 0.952033 0.027903
		CHANNELS 6 Xposition Yposition Zposition Xrotation Yrotation Zrotation
		JOINT f_mosh_cmu05_0511_L_Hip
		{
			OFFSET 0.073203 -0.089583 -0.008451
			CHANNELS 6 Xposition Yposition Zposition Xrotation Yrotation Zrotation
			JOINT f_mosh_cmu05_0511_L_Knee
			{
				OFFSET 0.033363 -0.381093 -0.005882
				CHANNELS 6 Xposition Yposition Zposition Xrotation Yrotation Zrotation
				JOINT f_mosh_cmu05_0511_L_Ankle
				{
					OFFSET -0.012136 -0.404212 -0.045073
					CHANNELS 6 Xposition Yposition Zposition Xrotation Yrotation Zrotation
					JOINT f_mosh_cmu05_0511_L_Foot
					{
						OFFSET 0.023998 -0.057168 0.116177
						CHANNELS 6 Xposition Yposition Zposition Xrotation Yrotation Zrotation
						End Site
						{
							OFFSET 0.000000 0.131686 0.000000
						}
					}
				}
			}
		}
		JOINT f_mosh_cmu05_0511_R_Hip
		{
			OFFSET -0.071051 -0.088940 -0.004460
			CHANNELS 6 Xposition Yposition Zposition Xrotation Yrotation Zrotation
			JOINT f_mosh_cmu05_0511_R_Knee
			{
				OFFSET -0.040159 -0.388281 -0.008116
				CHANNELS 6 Xposition Yposition Zposition Xrotation Yrotation Zrotation
				JOINT f_mosh_cmu05_0511_R_Ankle
				{
					OFFSET 0.015052 -0.405159 -0.042521
					CHANNELS 6 Xposition Yposition Zposition Xrotation Yrotation Zrotation
					JOINT f_mosh_cmu05_0511_R_Foot
					{
						OFFSET -0.022162 -0.049535 0.120046
						CHANNELS 6 Xposition Yposition Zposition Xrotation Yrotation Zrotation
						End Site
						{
							OFFSET 0.000000 0.131742 0.000000
						}
					}
				}
			}
		}
		JOINT f_mosh_cmu05_0511_Spine1
		{
			OFFSET -0.002105 0.102865 -0.021646
			CHANNELS 6 Xposition Yposition Zposition Xrotation Yrotation Zrotation
			JOINT f_mosh_cmu05_0511_Spine2
			{
				OFFSET 0.003214 0.123188 -0.000947
				CHANNELS 6 Xposition Yposition Zposition Xrotation Yrotation Zrotation
				JOINT f_mosh_cmu05_0511_Spine3
				{
					OFFSET 0.001655 0.048352 0.025579
					CHANNELS 6 Xposition Yposition Zposition Xrotation Yrotation Zrotation
					JOINT f_mosh_cmu05_0511_Neck
					{
						OFFSET -0.003113 0.213543 -0.049645
						CHANNELS 6 Xposition Yposition Zposition Xrotation Yrotation Zrotation
						JOINT f_mosh_cmu05_0511_Head
						{
							OFFSET 0.004221 0.064949 0.050387
							CHANNELS 6 Xposition Yposition Zposition Xrotation Yrotation Zrotation
							End Site
							{
								OFFSET 0.000000 0.082311 0.000000
							}
						}
					}
					JOINT f_mosh_cmu05_0511_L_Collar
					{
						OFFSET 0.077248 0.119321 -0.035930
						CHANNELS 6 Xposition Yposition Zposition Xrotation Yrotation Zrotation
						JOINT f_mosh_cmu05_0511_L_Shoulder
						{
							OFFSET 0.087504 0.033302 -0.007308
							CHANNELS 6 Xposition Yposition Zposition Xrotation Yrotation Zrotation
							JOINT f_mosh_cmu05_0511_L_Elbow
							{
								OFFSET 0.261485 -0.013777 -0.026078
								CHANNELS 6 Xposition Yposition Zposition Xrotation Yrotation Zrotation
								JOINT f_mosh_cmu05_0511_L_Wrist
								{
									OFFSET 0.244240 0.009760 -0.000379
									CHANNELS 6 Xposition Yposition Zposition Xrotation Yrotation Zrotation
									JOINT f_mosh_cmu05_0511_L_Hand
									{
										OFFSET 0.078627 -0.009693 -0.013014
										CHANNELS 6 Xposition Yposition Zposition Xrotation Yrotation Zrotation
										End Site
										{
											OFFSET 0.000000 0.080284 0.000000
										}
									}
								}
							}
						}
					}
					JOINT f_mosh_cmu05_0511_R_Collar
					{
						OFFSET -0.079384 0.117390 -0.040553
						CHANNELS 6 Xposition Yposition Zposition Xrotation Yrotation Zrotation
						JOINT f_mosh_cmu05_0511_R_Shoulder
						{
							OFFSET -0.090012 0.035653 -0.009674
							CHANNELS 6 Xposition Yposition Zposition Xrotation Yrotation Zrotation
							JOINT f_mosh_cmu05_0511_R_Elbow
							{
								OFFSET -0.255036 -0.015794 -0.019774
								CHANNELS 6 Xposition Yposition Zposition Xrotation Yrotation Zrotation
								JOINT f_mosh_cmu05_0511_R_Wrist
								{
									OFFSET -0.251954 0.008889 -0.004499
									CHANNELS 6 Xposition Yposition Zposition Xrotation Yrotation Zrotation
									JOINT f_mosh_cmu05_0511_R_Hand
									{
										OFFSET -0.079647 -0.007301 -0.010293
										CHANNELS 6 Xposition Yposition Zposition Xrotation Yrotation Zrotation
										End Site
										{
											OFFSET 0.000000 0.080641 0.000000
										}
									}
								}
							}
						}
					}
				}
			}
		}
	}
}
MOTION
Frames: 7
Frame Time: 0.041667
0.000000 0.000000 0.000000 -90.000009 0.000000 -0.000000 0.710182 0.491860 0.931923 86.833677 -76.907486 -5.251438 0.073203 -0.089582 -0.008451 -20.153008 0.751659 9.957945 0.033363 -0.381093 -0.005881 14.464843 -10.931537 -1.925534 -0.012136 -0.404212 -0.045073 18.973852 20.442536 -11.219319 0.023998 -0.057168 0.116177 -13.998563 -11.096943 11.498206 -0.071051 -0.088940 -0.004460 -6.905684 -8.798351 -3.830820 -0.040159 -0.388282 -0.008116 20.570045 5.642607 5.243346 0.015052 -0.405159 -0.042521 -2.581253 -20.899815 15.608068 -0.022162 -0.049535 0.120046 -1.217724 16.868773 -24.776399 -0.002105 0.102865 -0.021646 9.429353 13.855154 2.553849 0.003214 0.123188 -0.000947 -7.206615 10.721856 -3.522478 0.001655 0.048352 0.025579 4.118345 15.132472 0.709547 -0.003113 0.213543 -0.049645 -3.786326 0.338690 -3.164005 0.004221 0.064949 0.050387 7.688473 -5.715711 4.410977 0.077248 0.119321 -0.035930 -14.544579 13.346251 9.694897 0.087504 0.033302 -0.007308 -13.688876 3.851342 -11.418130 0.261485 -0.013777 -0.026079 -10.217478 2.231529 8.981554 0.244240 0.009760 -0.000379 9.134742 6.740688 -17.942868 0.078626 -0.009693 -0.013014 -6.100585 -7.545493 -4.653341 -0.079384 0.117390 -0.040553 1.540436 30.002712 2.809890 -0.090012 0.035653 -0.009674 -42.647927 40.913683 20.313240 -0.255036 -0.015794 -0.019774 -22.467170 -1.657464 -0.858599 -0.251954 0.008889 -0.004499 11.942331 0.174486 14.649487 -0.079647 -0.007301 -0.010293 -4.952649 3.481952 -0.186264 
0.000000 0.000000 0.000000 -90.000009 0.000000 -0.000000 0.708665 0.489440 0.926924 87.352082 -77.684270 -4.715103 0.073203 -0.089582 -0.008451 -20.723081 0.259404 10.049928 0.033363 -0.381093 -0.005882 16.818327 -11.613787 -2.240994 -0.012136 -0.404212 -0.045073 15.843373 20.792510 -9.490361 0.023998 -0.057168 0.116178 -13.894184 -10.375878 10.444963 -0.071051 -0.088940 -0.004460 -7.692564 -8.595233 -4.114265 -0.040159 -0.388281 -0.008116 21.833528 6.269081 5.290602 0.015052 -0.405159 -0.042521 -4.387592 -21.040524 14.548769 -0.022162 -0.049535 0.120046 -0.812922 16.593943 -23.915721 -0.002105 0.102865 -0.021646 9.814267 13.819329 2.411990 0.003214 0.123188 -0.000947 -7.564154 10.852784 -3.591405 0.001655 0.048352 0.025579 4.022835 15.234821 0.681919 -0.003113 0.213543 -0.049645 -4.076817 0.410121 -2.965877 0.004221 0.064949 0.050387 7.739231 -5.464659 4.220710 0.077248 0.119321 -0.035930 -14.726991 13.462650 9.763705 0.087504 0.033302 -0.007308 -13.542165 4.045913 -11.008168 0.261485 -0.013777 -0.026078 -10.299652 2.009778 8.768682 0.244240 0.009760 -0.000379 8.484814 6.614348 -18.338112 0.078627 -0.009693 -0.013014 -6.054772 -7.424572 -4.330112 -0.079384 0.117390 -0.040553 1.827843 29.886357 2.533679 -0.090012 0.035653 -0.009675 -42.834415 40.973540 19.556088 -0.255036 -0.015794 -0.019774 -22.287985 -1.945400 -1.040010 -0.251954 0.008889 -0.004499 11.253489 0.156102 14.395877 -0.079647 -0.007301 -0.010293 -4.656689 3.369589 -0.240367 
0.000000 0.000000 0.000000 -90.000009 0.000000 -0.000000 0.708695 0.486950 0.921309 88.169000 -78.769846 -3.842612 0.073203 -0.089582 -0.008451 -21.430490 -0.157221 10.146191 0.033363 -0.381093 -0.005882 19.205981 -12.009064 -2.491115 -0.012136 -0.404212 -0.045073 13.327845 21.328285 -8.020660 0.023998 -0.057168 0.116177 -14.106505 -9.965338 9.562018 -0.071051 -0.088940 -0.004460 -8.982751 -8.162836 -4.435866 -0.040159 -0.388281 -0.008116 23.678205 7.121837 5.245182 0.015052 -0.405159 -0.042521 -6.005569 -21.273572 13.679424 -0.022162 -0.049535 0.120046 -0.374707 16.794151 -23.363856 -0.002105 0.102865 -0.021646 10.007576 13.720363 2.323530 0.003214 0.123188 -0.000947 -7.798473 10.949125 -3.649068 0.001655 0.048352 0.025579 4.302864 15.264435 0.619724 -0.003113 0.213543 -0.049645 -4.532930 1.049338 -2.368953 0.004221 0.064949 0.050387 7.869479 -5.487918 3.791140 0.077248 0.119321 -0.035930 -15.196233 13.541959 10.019982 0.087504 0.033302 -0.007308 -13.345893 5.059452 -10.641709 0.261485 -0.013777 -0.026078 -10.486252 1.559424 8.312909 0.244240 0.009760 -0.000379 8.081278 6.253734 -19.125083 0.078627 -0.009693 -0.013013 -5.947406 -7.172315 -4.042884 -0.079384 0.117390 -0.040553 2.041667 30.345182 2.364182 -0.090012 0.035653 -0.009675 -43.134858 41.298817 18.443848 -0.255036 -0.015795 -0.019774 -22.423076 -2.712382 -1.429864 -0.251954 0.008889 -0.004499 10.757804 0.042736 14.231522 -0.079647 -0.007301 -0.010293 -4.203463 2.935239 -0.502555 
0.000000 0.000000 0.000000 -90.000009 0.000000 -0.000000 0.706118 0.484346 0.915897 88.921311 -79.216998 -3.145517 0.073203 -0.089582 -0.008451 -21.988278 -0.548424 10.258473 0.033363 -0.381093 -0.005881 21.256635 -12.787783 -2.653685 -0.012136 -0.404212 -0.045073 11.017004 21.663369 -6.796932 0.023998 -0.057168 0.116178 -14.395162 -9.723354 8.788883 -0.071051 -0.088940 -0.004460 -9.504667 -8.137266 -4.609847 -0.040159 -0.388281 -0.008116 24.769760 7.879585 5.293170 0.015052 -0.405159 -0.042521 -7.676374 -21.691342 12.970813 -0.022162 -0.049535 0.120046 0.124425 16.933596 -23.533388 -0.002105 0.102866 -0.021646 10.497302 13.688824 2.396824 0.003214 0.123188 -0.000947 -8.397627 10.933157 -3.789124 0.001655 0.048352 0.025579 4.450070 15.220757 0.594552 -0.003113 0.213543 -0.049645 -4.900600 1.170286 -2.517968 0.004221 0.064949 0.050387 7.648149 -5.410670 3.691579 0.077248 0.119321 -0.035930 -15.558718 12.985374 10.321681 0.087504 0.033302 -0.007308 -13.718325 5.492927 -10.827300 0.261485 -0.013777 -0.026078 -10.438562 1.752920 8.798413 0.244240 0.009760 -0.000379 8.248807 6.587354 -18.289317 0.078626 -0.009693 -0.013013 -5.893164 -7.327809 -3.916293 -0.079384 0.117390 -0.040553 2.165469 30.586352 1.738629 -0.090012 0.035653 -0.009674 -42.802446 40.093593 17.314910 -0.255036 -0.015794 -0.019774 -21.277117 -2.134087 -1.207646 -0.251954 0.008889 -0.004499 10.920423 0.460911 13.909648 -0.079647 -0.007301 -0.010293 -4.019697 3.052526 -0.446437 
0.000000 0.000000 0.000000 -90.000009 0.000000 -0.000000 0.706512 0.481924 0.909813 88.450267 -80.023507 -3.512581 0.073203 -0.089583 -0.008451 -22.471206 -0.874840 10.244071 0.033363 -0.381093 -0.005882 23.279095 -13.256382 -2.766650 -0.012136 -0.404212 -0.045073 8.966654 22.261419 -5.697776 0.023998 -0.057168 0.116177 -14.951439 -9.890233 8.403003 -0.071051 -0.088940 -0.004460 -10.359843 -7.909791 -4.952040 -0.040159 -0.388282 -0.008116 26.395445 8.656853 5.236718 0.015052 -0.405159 -0.042521 -9.423775 -21.827244 12.236670 -0.022162 -0.049535 0.120046 0.571316 17.148223 -23.904112 -0.002105 0.102865 -0.021646 10.201746 14.014262 2.546518 0.003214 0.123188 -0.000947 -6.537869 11.196472 -4.087551 0.001655 0.048352 0.025579 3.829796 15.235483 0.594491 -0.003113 0.213543 -0.049645 -5.780463 0.761133 -2.704254 0.004221 0.064949 0.050387 7.608565 -5.214978 3.433868 0.077248 0.119321 -0.035930 -15.457259 12.599091 9.907527 0.087504 0.033302 -0.007308 -13.855486 5.900620 -11.197505 0.261485 -0.013777 -0.026078 -10.689536 1.116524 9.147515 0.244240 0.009760 -0.000379 8.704217 6.076077 -19.062389 0.078627 -0.009693 -0.013014 -6.090110 -7.398376 -3.644087 -0.079384 0.117390 -0.040553 2.291233 30.438103 1.064650 -0.090012 0.035653 -0.009675 -42.641718 39.482414 16.261166 -0.255036 -0.015794 -0.019774 -20.697700 -1.891369 -2.893784 -0.251954 0.008889 -0.004499 11.959501 0.705370 14.136354 -0.079647 -0.007301 -0.010293 -4.050301 3.356682 -0.239704 
0.000000 0.000000 0.000000 -90.000009 0.000000 -0.000000 0.705428 0.478880 0.903801 92.047666 -80.917108 0.076257 0.073203 -0.089582 -0.008451 -23.480932 -1.130392 10.338529 0.033363 -0.381093 -0.005882 25.052572 -13.478113 -2.931631 -0.012136 -0.404212 -0.045073 6.845137 22.765893 -4.761592 0.023998 -0.057168 0.116178 -14.941163 -10.154848 8.187130 -0.071051 -0.088940 -0.004459 -11.715504 -7.593346 -5.209888 -0.040159 -0.388282 -0.008116 27.767729 9.518340 5.195877 0.015052 -0.405159 -0.042521 -11.227160 -22.056417 11.307846 -0.022162 -0.049535 0.120046 1.249485 17.699363 -23.868622 -0.002105 0.102866 -0.021646 10.881465 14.028923 2.428664 0.003214 0.123188 -0.000947 -7.526781 11.343739 -4.314429 0.001655 0.048352 0.025579 3.524773 15.303455 0.529906 -0.003113 0.213543 -0.049645 -6.458418 0.534810 -3.106953 0.004221 0.064949 0.050387 8.053980 -4.667481 3.610608 0.077248 0.119321 -0.035930 -15.753362 12.702824 9.452741 0.087504 0.033302 -0.007308 -13.612024 5.679594 -9.994702 0.261485 -0.013777 -0.026078 -10.757870 1.041360 8.387393 0.244240 0.009760 -0.000379 8.691259 5.493401 -18.711906 0.078626 -0.009693 -0.013014 -6.086675 -7.575745 -3.183322 -0.079384 0.117390 -0.040553 2.340716 29.940448 1.112691 -0.090012 0.035653 -0.009674 -41.654810 38.925060 14.168985 -0.255036 -0.015794 -0.019774 -19.495266 -1.514062 -0.867018 -0.251954 0.008889 -0.004499 12.415784 1.119859 12.945020 -0.079647 -0.007301 -0.010293 -4.086207 3.698443 -0.314162 
0.000000 0.000000 0.000000 -90.000009 0.000000 -0.000000 0.704628 0.476107 0.897490 95.502328 -81.615938 3.503688 0.073203 -0.089583 -0.008451 -24.481952 -1.272538 10.506195 0.033363 -0.381093 -0.005882 26.703615 -13.529126 -3.123433 -0.012136 -0.404212 -0.045073 4.940662 22.920564 -3.868459 0.023998 -0.057168 0.116178 -14.958584 -9.989211 7.823593 -0.071051 -0.088940 -0.004460 -12.948644 -7.371894 -5.431584 -0.040159 -0.388281 -0.008116 29.129698 10.281591 5.172694 0.015052 -0.405159 -0.042521 -13.370012 -22.145393 10.178296 -0.022162 -0.049535 0.120046 1.831608 17.959631 -23.258341 -0.002105 0.102865 -0.021646 11.659690 13.942315 2.378064 0.003214 0.123188 -0.000947 -8.784644 11.449799 -4.469878 0.001655 0.048351 0.025579 3.583101 15.359313 0.462224 -0.003113 0.213544 -0.049645 -6.937614 0.608907 -3.395224 0.004221 0.064949 0.050387 8.393595 -4.251048 3.695689 0.077248 0.119321 -0.035930 -16.110632 12.689354 9.240252 0.087504 0.033302 -0.007308 -13.617124 5.248903 -9.356490 0.261485 -0.013777 -0.026078 -10.795503 1.229028 7.957951 0.244240 0.009760 -0.000379 8.637818 5.383232 -17.427579 0.078626 -0.009693 -0.013014 -5.996264 -7.854642 -3.063613 -0.079384 0.117390 -0.040553 2.316663 29.545503 1.217882 -0.090012 0.035653 -0.009674 -41.065549 38.728744 13.058190 -0.255036 -0.015794 -0.019774 -18.370926 -1.654151 -0.756454 -0.251954 0.008889 -0.004500 12.642481 1.423072 11.480871 -0.079647 -0.007301 -0.010293 -3.980261 3.942340 -0.419583 
